<?xml version="1.0" encoding="UTF-8" standalone="no" ?>
<!DOCTYPE svg PUBLIC "-//W3C//DTD SVG 1.1//EN" "http://www.w3.org/Graphics/SVG/1.1/DTD/svg11.dtd">
<svg xmlns="http://www.w3.org/2000/svg" xmlns:xlink="http://www.w3.org/1999/xlink" version="1.1" width="1080" height="1080" viewBox="0 0 1080 1080" xml:space="preserve">
<desc>Created with Fabric.js 5.2.4</desc>
<defs>
</defs>
<g transform="matrix(1 0 0 1 540 540)" id="b9fcf673-4014-43bc-8318-07c7042608ee"  >
</g>
<g transform="matrix(1 0 0 1 540 540)" id="69017d57-139b-4525-b15c-61c1873d9452"  >
<rect style="stroke: none; stroke-width: 1; stroke-dasharray: none; stroke-linecap: butt; stroke-dashoffset: 0; stroke-linejoin: miter; stroke-miterlimit: 4; fill: rgb(255,255,255); fill-rule: nonzero; opacity: 1; visibility: hidden;" vector-effect="non-scaling-stroke"  x="-540" y="-540" rx="0" ry="0" width="1080" height="1080" />
</g>
<g transform="matrix(4.68 0 0 5.17 522.71 465.42)"  >
<path style="stroke: rgb(0,0,0); stroke-width: 0; stroke-dasharray: none; stroke-linecap: butt; stroke-dashoffset: 0; stroke-linejoin: miter; stroke-miterlimit: 4; fill: rgb(255,117,78); fill-rule: nonzero; opacity: 1;" vector-effect="non-scaling-stroke"  transform=" translate(-49.82, -49.94)" d="M 49.844 20.512 C 70.524 20.512 87.273 31.782 87.273 45.668 C 87.273 59.555 70.524 70.12899999999999 49.843999999999994 70.771 C 45.37799999999999 74.56400000000001 45.96399999999999 77.5 31.981999999999996 79.37 C 35.224 76.914 39.370999999999995 74.885 38.678999999999995 69.916 C 23.420999999999996 66.926 12.363999999999994 57.046 12.363999999999994 45.669 C 12.363 31.622 29.161 20.512 49.844 20.512 z" stroke-linecap="round" />
</g>
<g transform="matrix(0 0 0 0 0 0)"  >
<g style=""   >
</g>
</g>
<g transform="matrix(0 0 0 0 0 0)"  >
<g style=""   >
</g>
</g>
<g transform="matrix(0.55 0 0 0.55 522.62 452.33)" style="" id="9227f17c-c3b2-4ddf-97db-1f28daa689ea"  >
		<text xml:space="preserve" font-family="Lato" font-size="200" font-style="normal" font-weight="700" style="stroke: none; stroke-width: 1; stroke-dasharray: none; stroke-linecap: butt; stroke-dashoffset: 0; stroke-linejoin: miter; stroke-miterlimit: 4; fill: rgb(255,255,255); fill-rule: nonzero; opacity: 1; white-space: pre;" ><tspan x="-58" y="62.83" >#</tspan></text>
</g>
<g transform="matrix(1 0 0 1 503.57 667.13)" style="" id="5cf71366-b017-4ee6-ab1a-885c5adee321"  >
		<text xml:space="preserve" font-family="Lato" font-size="68" font-style="normal" font-weight="900" style="stroke: none; stroke-width: 1; stroke-dasharray: none; stroke-linecap: butt; stroke-dashoffset: 0; stroke-linejoin: miter; stroke-miterlimit: 4; fill: rgb(255,117,78); fill-rule: nonzero; opacity: 1; white-space: pre;" ><tspan x="-227.83" y="21.36" >SOCIAL PULSE</tspan></text>
</g>
<g transform="matrix(NaN NaN NaN NaN 0 0)"  >
<g style=""   >
</g>
</g>
<g transform="matrix(NaN NaN NaN NaN 0 0)"  >
<g style=""   >
</g>
</g>
</svg>